<?xml version="1.0" standalone="no"?>
<!DOCTYPE svg PUBLIC "-//W3C//DTD SVG 20010904//EN"
 "http://www.w3.org/TR/2001/REC-SVG-20010904/DTD/svg10.dtd">
<svg version="1.0" xmlns="http://www.w3.org/2000/svg"
 width="2000.000000pt" height="1500.000000pt" viewBox="0 0 2000.000000 1500.000000"
 preserveAspectRatio="xMidYMid meet">

<g transform="translate(0.000000,1500.000000) scale(0.100000,-0.100000)"
fill="#000000" stroke="none">
<path d="M5194 9091 c-140 -17 -131 -10 -140 -109 -10 -126 0 -342 17 -353 38
-23 348 -33 492 -16 60 8 69 12 78 34 10 27 12 326 3 385 -6 35 -9 37 -57 48
-68 14 -305 21 -393 11z"/>
<path d="M8255 9094 c-27 -3 -73 -9 -102 -15 -50 -10 -53 -12 -60 -47 -12 -59
-8 -364 5 -388 9 -18 27 -23 100 -33 152 -19 429 -8 473 20 11 7 14 51 13 218
0 116 -2 213 -5 216 -20 20 -302 39 -424 29z"/>
<path d="M10800 7860 l0 -1230 290 0 290 0 0 1230 0 1230 -290 0 -290 0 0
-1230z"/>
<path d="M15550 7860 l0 -1230 290 0 290 0 0 410 c0 226 3 410 8 410 4 0 122
-183 262 -406 140 -223 259 -408 265 -410 5 -2 157 -3 336 -2 l325 3 -313 453
c-248 359 -311 457 -304 470 5 10 125 197 267 417 141 220 259 408 262 418 4
16 -16 17 -315 17 l-319 0 -229 -375 c-126 -206 -233 -375 -237 -375 -4 0 -8
322 -8 715 l0 715 -290 0 -290 0 0 -1230z"/>
<path d="M2640 7785 l0 -1155 594 0 c590 0 726 6 876 36 331 68 497 244 569
602 34 165 44 331 38 614 -5 286 -23 424 -71 565 -88 257 -249 395 -528 452
-167 35 -307 41 -900 41 l-578 0 0 -1155z m1091 655 c143 -16 213 -43 274
-104 92 -92 125 -233 125 -541 0 -342 -50 -516 -170 -596 -92 -61 -205 -79
-512 -79 l-228 0 0 658 c0 362 3 662 7 665 10 11 408 8 504 -3z"/>
<path d="M7662 8510 c-62 -22 -144 -86 -192 -148 -38 -49 -30 -49 -161 -3
-126 44 -264 61 -485 61 -433 0 -660 -88 -771 -296 -49 -93 -66 -171 -66 -304
1 -178 42 -304 130 -395 23 -25 43 -47 43 -50 0 -3 -17 -13 -38 -24 -60 -31
-139 -123 -157 -183 -29 -98 -11 -211 46 -294 26 -38 108 -101 152 -117 21 -8
22 -27 1 -27 -28 0 -134 -62 -161 -94 -120 -142 -104 -379 36 -515 85 -83 201
-131 396 -167 142 -26 580 -26 743 -1 286 45 451 128 551 278 62 93 85 180 85
319 -1 245 -72 373 -248 444 -126 50 -207 58 -636 65 -361 5 -398 8 -424 24
-32 21 -56 72 -56 119 0 59 7 62 106 48 131 -17 446 -15 578 5 264 40 403 122
478 280 45 97 61 191 55 325 -3 63 -12 139 -20 167 l-15 52 34 7 c18 3 88 5
154 3 l120 -4 0 223 0 222 -112 0 c-85 -1 -126 -5 -166 -20z m-678 -494 c32
-8 70 -23 85 -33 67 -49 93 -181 50 -264 -27 -53 -82 -78 -200 -89 -194 -18
-342 17 -381 90 -27 49 -22 176 8 216 31 43 67 65 126 79 71 18 239 18 312 1z
m245 -1369 c38 -19 63 -62 68 -114 12 -137 -114 -181 -487 -170 -289 8 -360
41 -360 164 0 53 24 98 62 119 33 19 682 19 717 1z"/>
<path d="M9568 8406 c-288 -51 -461 -186 -544 -426 -42 -120 -55 -205 -61
-410 -20 -663 182 -931 729 -969 233 -16 644 16 751 58 l27 11 0 235 c0 186
-3 237 -13 241 -7 2 -82 -2 -167 -11 -84 -8 -228 -15 -319 -15 -270 0 -355 29
-408 139 -26 52 -28 67 -32 198 -4 173 16 257 76 324 83 92 176 113 448 105
110 -3 241 -13 290 -21 50 -8 93 -14 98 -15 4 0 6 111 5 247 l-3 248 -61 16
c-33 9 -112 24 -175 34 -151 24 -532 30 -641 11z"/>
<path d="M12355 8409 c-33 -5 -100 -20 -149 -34 -300 -86 -448 -278 -497 -642
-15 -115 -6 -465 15 -553 40 -172 96 -282 190 -375 146 -145 355 -207 696
-207 344 0 548 61 696 207 159 157 224 395 211 770 -4 94 -13 204 -22 245 -73
358 -255 529 -625 585 -104 16 -415 18 -515 4z m402 -493 c102 -27 147 -69
185 -173 18 -50 21 -81 22 -223 1 -208 -14 -269 -83 -341 -62 -63 -126 -83
-276 -82 -187 1 -279 51 -327 178 -21 54 -23 77 -23 240 1 165 3 185 24 239
50 124 143 175 326 175 55 1 123 -5 152 -13z"/>
<path d="M14318 8406 c-288 -51 -461 -186 -544 -426 -42 -120 -55 -205 -61
-410 -20 -663 182 -931 729 -969 233 -16 644 16 751 58 l27 11 0 235 c0 186
-3 237 -13 241 -7 2 -82 -2 -167 -11 -197 -19 -462 -20 -554 0 -94 20 -137 50
-172 122 -26 53 -29 69 -32 192 -9 284 59 389 276 432 80 15 406 6 537 -16 50
-8 93 -14 98 -15 4 0 6 111 5 247 l-3 248 -61 16 c-33 9 -112 24 -175 34 -151
24 -532 30 -641 11z"/>
<path d="M5060 7520 l0 -890 290 0 290 0 0 890 0 890 -290 0 -290 0 0 -890z"/>
<path d="M8097 8403 c-4 -3 -7 -404 -7 -890 l0 -883 295 0 295 0 -2 888 -3
887 -286 3 c-157 1 -288 -1 -292 -5z"/>
</g>
</svg>
